<svg width="50" height="33" viewBox="0 0 50 33" fill="none" xmlns="http://www.w3.org/2000/svg">
<path d="M28.1751 0.887895C28.1751 7.115 32.6738 12.5252 39.2442 15.1889L1.27779 15.1889C0.792404 15.1889 0.389893 15.5914 0.389893 16.0768C0.389893 16.5622 0.792404 16.9647 1.27779 16.9647L39.2442 16.9647C32.6856 19.6402 28.1751 25.0386 28.1751 31.2658C28.1751 31.7511 28.5776 32.1536 29.063 32.1536C29.5484 32.1536 29.9509 31.7511 29.9509 31.2658C29.9509 23.3812 38.2734 16.9647 48.502 16.9647C48.9874 16.9647 49.3899 16.574 49.3899 16.0768C49.3899 15.5796 48.9874 15.1889 48.502 15.1889C38.2734 15.1889 29.9509 8.77241 29.9509 0.887895C29.9509 0.402513 29.5602 0 29.063 0C28.5658 0 28.1751 0.402513 28.1751 0.887895Z" fill="white"/>
</svg>
