<svg width="109" height="54" viewBox="0 0 109 54" fill="none" xmlns="http://www.w3.org/2000/svg">
<g clip-path="url(#clip0_2_75)">
<path d="M33.4284 16.6274H40.2971V18.8745H37.0296V34.6631H33.4284V16.6274ZM44.3694 27.8924L44.9866 18.8745H45.1933L45.8105 27.8924H44.3694ZM40.3813 34.6631H43.9073L44.2408 29.8733H45.9389L46.274 34.6631H49.7984L47.9204 16.6274H42.2593L40.3813 34.6631ZM54.956 28.3507V31.7508C54.956 32.2091 55.3104 32.3421 55.5171 32.3421C55.8566 32.3421 56.0929 32.0613 56.0929 31.7508V27.5526C56.0929 26.9907 55.9895 26.3698 54.6459 26.3698H53.1841V24.3889H54.7049C55.7238 24.3889 56.0929 24.1524 56.0929 23.0436V19.4659C56.0929 19.1554 55.8566 18.8745 55.5169 18.8745C55.3104 18.8745 54.956 18.9927 54.956 19.4659V22.4077H51.3532V19.8503C51.3532 18.5937 51.5008 16.6274 54.0255 16.6274H57.0082C59.533 16.6274 59.6955 18.5937 59.6955 19.8503V22.7329C59.6955 24.6991 58.3223 25.2314 57.2444 25.1869V25.3644C59.6659 25.3053 59.6955 27.1678 59.6955 27.8036V31.4404C59.6955 32.7117 59.533 34.6631 57.0082 34.6631H54.0255C51.5008 34.6631 51.3532 32.7116 51.3532 31.4403V28.3507H54.956ZM62.058 16.6274H70.4004V34.6631H66.7976V18.8745H65.6608V34.6631H62.058V16.6274ZM76.3655 26.5471V18.8747H76.838C77.2218 18.8747 77.5024 19.1997 77.5024 19.7764V25.6453C77.5024 26.222 77.2218 26.547 76.8379 26.547L76.3655 26.5471ZM72.7628 34.6631H76.3655V28.528H78.4324C80.9426 28.528 81.1051 26.5766 81.1051 25.3052V19.8503C81.1051 18.5937 80.9426 16.6274 78.4326 16.6274H72.7628V34.6631ZM88.2071 31.7508C88.2071 32.0613 87.9708 32.3421 87.6312 32.3421C87.4244 32.3421 87.0702 32.2091 87.0702 31.7508V19.4659C87.0702 18.9927 87.4246 18.8745 87.6312 18.8745C87.9708 18.8745 88.2071 19.1554 88.2071 19.4659V31.7508ZM83.4675 31.4404C83.4675 32.7117 83.6298 34.6631 86.14 34.6631H89.1373C91.6473 34.6631 91.8098 32.7116 91.8098 31.4403V19.8503C91.8098 18.5937 91.6475 16.6274 89.1373 16.6274H86.14C83.6299 16.6274 83.4675 18.5937 83.4675 19.8503V31.4404ZM103.533 16.6274H108.229V34.6631H104.626V23.3539H104.493L102.633 34.6631H99.7534L97.9078 23.3539H97.7749V34.6631H94.1722V16.6274H98.8528L101.2 29.3115L103.533 16.6274ZM28.7596 9.97503C27.6567 5.14087 24.8926 1.20857 24.5116 0.572754C23.9092 1.47446 21.7048 4.94874 20.5842 8.7923C19.3601 13.0942 19.18 16.9083 19.6024 20.6485C20.0217 24.4034 21.6059 28.262 21.6059 28.262C22.4476 30.2725 23.7084 32.4455 24.5295 33.51C25.7327 31.943 28.4983 27.2714 29.3606 21.1807C29.8404 17.7805 29.8611 14.8092 28.7596 9.97503ZM24.5116 32.2978C23.9698 31.2778 23.1281 29.341 23.0484 26.3252C23.0277 23.4278 24.1897 20.9293 24.5295 20.412C24.8321 20.9295 25.8331 23.1025 25.9528 26.074C26.0339 28.9716 25.0712 31.2628 24.5116 32.2978ZM28.4393 18.1796C28.3979 20.0276 28.1778 21.979 27.8973 23.147C27.9977 21.1364 27.7571 18.3128 27.2963 16.0953C26.8357 13.8925 25.5319 10.1968 24.4911 8.49662C23.5299 10.1229 22.3456 13.316 21.7255 16.0805C21.1024 18.8449 21.0847 22.2008 21.0847 23.2061C20.9193 22.3633 20.5059 19.3329 20.6225 16.3023C20.72 13.8039 21.3046 11.2169 21.6251 10.0341C22.8476 6.08702 24.2311 3.55906 24.491 3.15982C24.7509 3.55906 26.4931 6.67839 27.3967 9.9454C28.2961 13.2126 28.4776 16.3466 28.4393 18.1798" fill="black" fill-opacity="0.18"/>
<path d="M26.3823 34.6335H17.9972V40.266C18.0047 40.266 18.0106 40.2512 18.0179 40.2512C19.9935 38.2703 23.1976 38.2703 25.1746 40.2512C27.1502 42.2174 27.1502 45.4253 25.1746 47.4064C25.1657 47.4211 25.1568 47.4211 25.148 47.4359C25.1377 47.4359 25.1274 47.4507 25.1184 47.4655C23.1473 49.4169 20.5723 50.3925 17.9972 50.3925C15.4104 50.3925 12.8235 49.4169 10.8509 47.4359C7.37218 43.9617 6.96023 38.5658 9.61207 34.6335C9.97612 34.0926 10.391 33.5876 10.8509 33.1257C12.8235 31.1448 15.4104 30.169 17.9972 30.169V16.6274C8.05734 16.6274 0 24.6843 0 34.6335C0 44.5827 8.05734 52.6545 17.9972 52.6545C23.1798 52.6545 27.8486 50.4516 31.1323 46.9481V34.6335H26.3823ZM108.228 39.9324H33.4283V52.6545H108.228V39.9324ZM101.76 48.8138H102.71V46.8934H101.76V48.8138ZM101.76 45.4532H103.196L104.158 45.9334L104.395 46.4134L104.632 47.3736V47.8536C104.607 51.293 102.397 50.0339 100.075 50.2541V42.3328H101.76V45.4532ZM89.2863 42.3328V43.773H88.0875V50.2541H86.177V43.773H84.9784V42.3328H89.2863ZM71.7924 48.0937H72.0296L72.5041 47.8536V44.493H71.7924V48.0937ZM69.8695 44.4932H69.1452V47.8536L69.6321 48.0937H69.8695V44.4932ZM71.7924 42.3328V43.0529H72.9912L73.7029 43.5329L74.1898 44.013L74.427 44.9732V47.6137L74.19 48.5738L73.7029 49.0538L72.9912 49.5338H71.7924V50.2539H69.8695V49.5338H68.6707L67.9465 49.0538L67.4721 48.5738L67.2348 47.6137V44.9732L67.4719 44.013L67.9465 43.5329L68.6707 43.0529H69.8695V42.3328H71.7924ZM56.2041 42.3328V43.773H54.7657V45.4532H56.2041V46.8934H54.7657V48.8138H56.4439V50.2539H52.8477V42.3328H56.2041ZM38.9425 45.4532H39.9015V42.3328H41.5797V50.2541H39.9015V46.8934H38.9425V50.2541H37.0245V42.3328H38.9425V45.4532Z" fill="black" fill-opacity="0.18"/>
</g>
<defs>
<clipPath id="clip0_2_75">
<rect width="108.228" height="53.2271" fill="white"/>
</clipPath>
</defs>
</svg>
