<svg width="157" height="32" viewBox="0 0 157 32" fill="none" xmlns="http://www.w3.org/2000/svg">
<path d="M22.5361 30.2018C21.3545 30.7785 18.9683 31.4888 15.4293 31.4888C5.62932 31.4888 0.00537109 24.7484 0.00537109 16.1487C0.00537109 5.91091 7.17157 0.493408 16.0802 0.493408C19.534 0.493408 21.3588 1.15437 22.5342 1.77893L21.4455 7.90147C20.137 7.32193 18.748 6.79411 16.3494 6.79411C12.1068 6.79411 7.60646 9.31727 7.60646 16.0356C7.60646 22.0456 11.1948 25.2245 16.3848 25.2245C18.4405 25.2245 19.8357 24.8212 21.446 24.0821L22.5361 30.2018Z" fill="black" fill-opacity="0.18"/>
<path d="M38.8101 8.08893C36.1701 8.08893 33.6153 9.28584 32.3145 11.2084H32.2345V0.60376L25.5937 2.90276V30.5698H32.2345V17.6461C32.2345 15.78 33.4477 13.7727 35.7745 13.7727C38.2636 13.7727 39.2225 15.7321 39.2225 18.5824V30.5703H45.869V17.6657C45.869 11.0781 43.0436 8.08893 38.8101 8.08893Z" fill="black" fill-opacity="0.18"/>
<path d="M55.884 21.8393C56.1283 24.6416 58.4527 26.1307 62.0444 26.1628C64.2088 26.1796 66.7253 25.5502 68.4016 24.5626L69.4036 29.7311C66.8805 30.9984 63.9981 31.4893 61.064 31.4893C53.1592 31.4893 48.9224 26.7352 48.9224 19.4516C48.9224 12.4061 53.4782 7.85986 60.3053 7.85986C67.3412 7.85986 70.4952 13.0403 70.4952 19.5311C70.4952 20.2151 70.4109 21.3292 70.3352 21.8393H55.884ZM63.8625 17.1134C63.8625 15.4859 63.0684 12.6399 59.994 12.6399C57.2984 12.6399 56.0272 14.9604 55.8385 17.1134H63.8625Z" fill="black" fill-opacity="0.18"/>
<path d="M78.3019 30.5682L70.9642 8.78516H78.2909L82.2772 24.1938H82.4113L86.3982 8.78516H93.7277L86.3905 30.5682H78.3019Z" fill="black" fill-opacity="0.18"/>
<path d="M95.6105 15.9494C95.6105 12.7447 95.5099 10.654 95.3734 8.78512H101.63L101.819 12.8342H101.987C103.082 9.62952 105.183 8.41201 107.345 8.28939C108.372 8.22952 108.928 8.30232 109.564 8.42542V14.7946C108.955 14.6754 107.747 14.535 106.898 14.6131C104.342 14.8483 102.796 16.7071 102.362 18.8471C102.275 19.2906 102.23 19.783 102.23 20.3592V30.5682H95.6129V15.9494H95.6105Z" fill="black" fill-opacity="0.18"/>
<path d="M132.901 19.6746C132.901 26.814 128.6 31.4891 121.63 31.4891C114.658 31.4891 110.354 26.814 110.354 19.6746C110.354 12.5343 114.658 7.85962 121.63 7.85962C128.6 7.85962 132.901 12.5347 132.901 19.6746ZM126.016 19.6746C126.016 16.1298 124.798 13.0444 121.63 13.0444C118.457 13.0444 117.245 16.1293 117.245 19.6746C117.245 23.2227 118.457 26.3034 121.63 26.3034C124.799 26.3034 126.016 23.2227 126.016 19.6746Z" fill="black" fill-opacity="0.18"/>
<path d="M135.854 15.7272C135.854 13.0087 135.754 10.6876 135.614 8.78232H141.87L142.013 11.8299H142.148C143.014 10.4127 145.307 8.08447 148.884 8.08447C153.262 8.08447 156.12 11.0737 156.12 17.486V30.5658H149.485V18.487C149.485 15.6841 148.523 13.7678 146.122 13.7678C144.281 13.7678 143.138 15.0624 142.714 16.3034C142.557 16.7579 142.492 17.3753 142.492 17.9989V30.5654H135.854V15.7272Z" fill="black" fill-opacity="0.18"/>
</svg>
