<svg width="118" height="36" viewBox="0 0 118 36" fill="none" xmlns="http://www.w3.org/2000/svg">
<path fill-rule="evenodd" clip-rule="evenodd" d="M47.503 1.63974C46.9658 1.63974 46.7276 1.9589 46.5282 2.41559C33.988 31.2324 32.9356 33.5105 32.9356 33.5105C40.0421 33.5105 40.0421 33.5105 40.0421 33.5105C41.521 29.8953 41.521 29.8953 41.521 29.8953C52.2278 29.8953 52.2278 29.8953 52.2278 29.8953C53.7122 33.5105 53.7122 33.5105 53.7122 33.5105C62.0704 33.5105 62.0704 33.5105 62.0704 33.5105C62.0704 33.5105 61.3559 32.0303 48.4778 2.41559C48.2785 1.9589 48.0404 1.63974 47.503 1.63974ZM43.7809 24.3817C46.8661 16.8378 46.8661 16.8378 46.8661 16.8378C49.9623 24.3817 49.9623 24.3817 49.9623 24.3817H43.7809ZM83.0021 19.0334C85.4448 17.5806 87.2948 15.0439 87.2948 11.4067C87.2948 8.55086 86.1483 6.19579 84.1542 4.60572C82.1326 2.98788 79.7951 2.11287 75.0149 2.11287C64.7901 2.11287 64.7901 2.11287 64.7901 2.11287C64.7901 33.5105 64.7901 33.5105 64.7901 33.5105C72.3452 33.5105 72.3452 33.5105 72.3452 33.5105C72.3452 21.823 72.3452 21.823 72.3452 21.823C74.6881 21.823 74.6881 21.823 74.6881 21.823C77.2361 21.823 78.5212 22.7859 79.5901 25.3337C80.493 27.4906 81.1299 30.0494 81.9609 33.5105C90.3856 33.5105 90.3856 33.5105 90.3856 33.5105C89.1891 29.9503 88.5909 28.2665 87.6937 25.7574C86.464 22.3239 84.974 20.2109 83.0021 19.0334ZM78.1722 15.1816C77.2583 15.8803 76.0785 16.1004 73.9571 16.1004C72.3452 16.1004 72.3452 16.1004 72.3452 16.1004C72.3452 16.1004 72.3286 7.73116 72.3452 7.73116C73.9571 7.73116 73.9571 7.73116 73.9571 7.73116C76.1726 7.73116 77.2748 7.97321 78.1667 8.64442C79.1858 9.41478 79.64 10.5703 79.64 11.9075C79.64 13.3656 79.1305 14.4386 78.1722 15.1816ZM15.9864 15.4181C3.15264 2.66324 3.15264 2.66324 3.15264 2.66324C2.76492 2.28354 2.37721 2.01396 1.76794 2.01396C1.76794 33.5105 1.76794 33.5105 1.76794 33.5105C8.36489 33.5105 8.36489 33.5105 8.36489 33.5105C8.36489 18.45 8.36489 18.45 8.36489 18.45C15.9864 26.0215 15.9864 26.0215 15.9864 26.0215C23.6135 18.45 23.6135 18.45 23.6135 18.45C23.6135 33.5105 23.6135 33.5105 23.6135 33.5105C30.2104 33.5105 30.2104 33.5105 30.2104 33.5105C30.2104 2.01396 30.2104 2.01396 30.2104 2.01396C29.6012 2.01396 29.2135 2.28354 28.8257 2.66324L15.9864 15.4181ZM113.909 17.8447C110.542 14.6643 104.432 14.1194 102.017 12.2487C101.07 11.5168 100.732 10.4383 101.043 9.4093C101.425 8.13279 102.704 7.2964 104.582 7.2964C107.169 7.2964 109.489 8.46839 111.096 10.3668C115.41 5.88223 115.41 5.88223 115.41 5.88223C112.868 3.19704 108.808 1.57932 104.532 1.57932C99.5469 1.57932 95.7861 3.97288 94.1078 7.79158C92.806 10.7574 93.2548 13.8499 94.8555 16.073C97.9517 20.3759 104.488 20.508 107.318 22.7144C108.326 23.5014 108.891 24.7724 108.287 26.1426C107.767 27.3421 106.454 28.1565 104.305 28.2115C101.325 28.283 98.6662 26.8964 96.711 24.4698C92.3906 28.9598 92.3906 28.9598 92.3906 28.9598C95.2487 32.399 99.5027 34.0553 104.643 34.0553C109.639 34.0553 114.026 32.1239 115.815 28.0078C117.382 24.4093 116.817 20.5851 113.909 17.8447Z" fill="black" fill-opacity="0.18"/>
</svg>
