<svg width="76" height="120" viewBox="0 0 76 120" fill="none" xmlns="http://www.w3.org/2000/svg">
<path d="M15.9801 121C15.6909 120.995 15.4083 120.913 15.1612 120.763C14.9141 120.612 14.7115 120.399 14.5741 120.145C14.4366 119.89 14.3694 119.604 14.3792 119.315C14.3891 119.026 14.4757 118.744 14.6301 118.5L33.6601 89.0999L1.75005 86.5799C1.42213 86.5519 1.11037 86.4253 0.855775 86.2167C0.601184 86.0081 0.415693 85.7274 0.323707 85.4114C0.231721 85.0954 0.237547 84.7589 0.34042 84.4463C0.443293 84.1337 0.638394 83.8595 0.900054 83.6599L29.7101 61.8999L0.460054 31.8099C0.222614 31.5652 0.0678911 31.2522 0.0176626 30.9149C-0.0325659 30.5777 0.0242292 30.2332 0.180054 29.9299C0.336237 29.6253 0.584864 29.3781 0.890272 29.2236C1.19568 29.0691 1.54218 29.0153 1.88005 29.0699L26.4301 33.1199L14.6601 13.0999C14.4824 12.7961 14.4078 12.443 14.4475 12.0933C14.4871 11.7436 14.6389 11.4162 14.8801 11.1599C15.1222 10.9057 15.4404 10.7371 15.7866 10.6794C16.1329 10.6217 16.4886 10.678 16.8001 10.8399L51.3501 28.9299L55.2701 2.38988C55.1158 2.17396 55.0169 1.92345 54.9822 1.66037C54.9474 1.39729 54.9778 1.1297 55.0707 0.881122C55.1635 0.63254 55.3161 0.410581 55.5148 0.234755C55.7136 0.0589298 55.9525 -0.0653779 56.2105 -0.12724C56.4686 -0.189103 56.7379 -0.186626 56.9948 -0.120026C57.2516 -0.0534274 57.4882 0.0752541 57.6837 0.254706C57.8792 0.434158 58.0276 0.658886 58.1159 0.909134C58.2042 1.15938 58.2297 1.42749 58.1901 1.68988L75.7001 26.3199C75.8235 26.4932 75.9116 26.6892 75.9593 26.8966C76.007 27.104 76.0134 27.3187 75.9781 27.5286C75.9428 27.7384 75.8665 27.9393 75.7536 28.1197C75.6407 28.3001 75.4934 28.4564 75.3201 28.5799C75.1467 28.7033 74.9507 28.7914 74.7434 28.8391C74.536 28.8868 74.3212 28.8932 74.1114 28.8579C73.9015 28.8227 73.7006 28.7464 73.5203 28.6335C73.3399 28.5206 73.1835 28.3732 73.0601 28.1999L57.8801 6.84988L54.2201 31.6599C54.1822 31.9153 54.0839 32.1579 53.9333 32.3676C53.7827 32.5773 53.5842 32.748 53.3543 32.8654C53.1243 32.9828 52.8697 33.0436 52.6115 33.0426C52.3533 33.0417 52.0991 32.979 51.8701 32.8599L20.3301 16.3499L30.9901 34.4599C31.3101 35.0099 31.2901 35.6899 30.9301 36.2099C30.7556 36.4636 30.5124 36.6623 30.229 36.7827C29.9456 36.9031 29.6338 36.9403 29.3301 36.8899L6.22005 33.0899L33.3201 60.9699C33.4798 61.1358 33.6026 61.3336 33.6803 61.5504C33.758 61.7672 33.7889 61.998 33.771 62.2276C33.753 62.4572 33.6866 62.6803 33.5761 62.8824C33.4657 63.0845 33.3136 63.2608 33.1301 63.3999L6.27005 83.6699L36.6301 86.0799C36.9089 86.1047 37.1767 86.2009 37.4076 86.3592C37.6385 86.5175 37.8247 86.7327 37.9483 86.9839C38.0719 87.2351 38.1287 87.5139 38.1132 87.7934C38.0978 88.073 38.0106 88.3438 37.8601 88.5799L17.3501 120.26C17.0401 120.74 16.5201 121 15.9801 121Z" fill="#518F5A"/>
</svg>
