<svg width="78" height="70" viewBox="0 0 78 70" fill="none" xmlns="http://www.w3.org/2000/svg">
<g filter="url(#filter0_b_2_306)">
<circle cx="52" cy="44" r="24.75" stroke="white" stroke-width="1.5"/>
</g>
<g filter="url(#filter1_b_2_306)">
<circle cx="52" cy="44" r="4" fill="white"/>
</g>
<g clip-path="url(#clip0_2_306)">
<path d="M6.92462 52.4333C6.79932 52.4311 6.67685 52.3956 6.56978 52.3305C6.46271 52.2654 6.3749 52.1729 6.31535 52.0627C6.25581 51.9524 6.22667 51.8283 6.23094 51.703C6.2352 51.5778 6.27271 51.4559 6.33962 51.3499L14.5859 38.61L0.758287 37.518C0.616187 37.5058 0.481089 37.451 0.370766 37.3606C0.260444 37.2702 0.180065 37.1485 0.140204 37.0116C0.100343 36.8747 0.102868 36.7289 0.147446 36.5934C0.192025 36.4579 0.276568 36.3391 0.389954 36.2526L12.8743 26.8233L0.199287 13.7843C0.0963969 13.6783 0.0293503 13.5426 0.00758462 13.3965C-0.0141811 13.2503 0.0104301 13.101 0.0779541 12.9696C0.145633 12.8377 0.253372 12.7305 0.385715 12.6636C0.518059 12.5966 0.668207 12.5733 0.814621 12.597L11.453 14.352L6.35262 5.67663C6.27563 5.54499 6.24331 5.39197 6.26049 5.24044C6.27768 5.08892 6.34344 4.94702 6.44795 4.83596C6.55288 4.72582 6.69075 4.65275 6.8408 4.62774C6.99086 4.60273 7.14497 4.62714 7.27995 4.6973L22.2516 12.5363L23.9503 1.03563C23.8834 0.942066 23.8406 0.833512 23.8255 0.719511C23.8105 0.60551 23.8236 0.489554 23.8639 0.381836C23.9041 0.274117 23.9702 0.177935 24.0563 0.101744C24.1425 0.0255525 24.246 -0.0283142 24.3578 -0.0551212C24.4696 -0.0819282 24.5863 -0.0808548 24.6977 -0.0519952C24.809 -0.0231356 24.9115 0.0326264 24.9962 0.110389C25.0809 0.188151 25.1452 0.285533 25.1835 0.393974C25.2217 0.502415 25.2328 0.618594 25.2156 0.732298L32.8033 11.4053C32.8568 11.4804 32.8949 11.5653 32.9156 11.6552C32.9363 11.7451 32.9391 11.8381 32.9238 11.9291C32.9085 12.02 32.8754 12.107 32.8265 12.1852C32.7776 12.2634 32.7137 12.3311 32.6386 12.3846C32.5635 12.4381 32.4786 12.4763 32.3887 12.497C32.2988 12.5176 32.2058 12.5204 32.1148 12.5051C32.0239 12.4898 31.9369 12.4568 31.8587 12.4079C31.7805 12.3589 31.7128 12.2951 31.6593 12.22L25.0813 2.9683L23.4953 13.7193C23.4789 13.83 23.4363 13.9351 23.371 14.026C23.3058 14.1169 23.2197 14.1908 23.1201 14.2417C23.0205 14.2926 22.9101 14.3189 22.7982 14.3185C22.6864 14.3181 22.5762 14.2909 22.4769 14.2393L8.80962 7.08496L13.429 14.9326C13.5676 15.171 13.559 15.4656 13.403 15.691C13.3273 15.8009 13.222 15.887 13.0992 15.9392C12.9764 15.9914 12.8412 16.0075 12.7096 15.9856L2.69529 14.339L14.4386 26.4203C14.5078 26.4922 14.561 26.5779 14.5947 26.6719C14.6284 26.7658 14.6418 26.8658 14.634 26.9653C14.6262 27.0648 14.5975 27.1615 14.5496 27.2491C14.5017 27.3366 14.4358 27.413 14.3563 27.4733L2.71695 36.257L15.873 37.3013C15.9938 37.312 16.1098 37.3537 16.2099 37.4223C16.3099 37.4909 16.3906 37.5842 16.4442 37.693C16.4977 37.8019 16.5224 37.9227 16.5157 38.0438C16.509 38.165 16.4712 38.2823 16.406 38.3846L7.51829 52.1126C7.38395 52.3206 7.15862 52.4333 6.92462 52.4333Z" fill="white"/>
</g>
<defs>
<filter id="filter0_b_2_306" x="19.5" y="11.5" width="65" height="65" filterUnits="userSpaceOnUse" color-interpolation-filters="sRGB">
<feFlood flood-opacity="0" result="BackgroundImageFix"/>
<feGaussianBlur in="BackgroundImage" stdDeviation="3.5"/>
<feComposite in2="SourceAlpha" operator="in" result="effect1_backgroundBlur_2_306"/>
<feBlend mode="normal" in="SourceGraphic" in2="effect1_backgroundBlur_2_306" result="shape"/>
</filter>
<filter id="filter1_b_2_306" x="41" y="33" width="22" height="22" filterUnits="userSpaceOnUse" color-interpolation-filters="sRGB">
<feFlood flood-opacity="0" result="BackgroundImageFix"/>
<feGaussianBlur in="BackgroundImage" stdDeviation="3.5"/>
<feComposite in2="SourceAlpha" operator="in" result="effect1_backgroundBlur_2_306"/>
<feBlend mode="normal" in="SourceGraphic" in2="effect1_backgroundBlur_2_306" result="shape"/>
</filter>
<clipPath id="clip0_2_306">
<rect width="32.9333" height="52" fill="white"/>
</clipPath>
</defs>
</svg>
