<svg width="611" height="611" viewBox="0 0 611 611" fill="none" xmlns="http://www.w3.org/2000/svg">
<path d="M583.481 353.883C586.849 347.619 589.947 341.489 592.776 335.427C615.275 286.792 617.026 249.272 597.559 229.872C590.284 222.597 580.382 218.219 568.392 216.871C579.169 178.476 576.543 147.22 558.086 128.696C544.344 114.954 523.665 109.969 498.203 112.731C501.032 86.7975 495.711 66.387 482.305 52.9147C464.253 34.862 433.604 31.4939 394.198 42.7432C392.851 30.6183 388.54 20.7836 381.198 13.4412C361.798 -6.02608 324.278 -4.2747 275.645 18.2239C269.582 21.053 263.385 24.1516 257.188 27.5197C256.716 26.9808 256.245 26.5092 255.773 26.0377C241.627 11.8919 216.233 11.2183 184.372 24.219C154.127 36.546 120.985 59.8529 91.0103 89.7609C88.7197 92.0515 88.7197 95.8235 91.0103 98.1141C93.3003 100.404 97.0723 100.404 99.3629 98.1141C128.193 69.2837 159.987 46.9196 188.817 35.1314C214.818 24.4884 235.767 23.9495 246.477 33.5148C207.611 55.946 166.521 88.2795 127.991 126.81C74.1031 180.698 -21.0771 289.284 4.1829 314.545C7.88768 318.249 19.2042 329.566 75.787 290.497C84.207 284.704 93.0983 278.102 102.26 270.962C83.6004 293.326 67.1645 314.814 53.8273 334.551C20.8882 383.051 10.5821 414.104 23.3132 426.835C36.0442 439.567 67.0971 429.261 115.664 396.321C133.447 384.263 152.577 369.78 172.583 353.344C153.319 376.786 136.478 399.217 122.737 419.965C88.4503 471.698 78.1444 504.974 92.0877 518.918C106.032 532.861 139.307 522.555 191.04 488.268C211.787 474.527 234.285 457.686 257.659 438.421C241.223 458.428 226.741 477.626 214.684 495.341C181.677 543.909 171.438 574.962 184.169 587.693C196.9 600.424 227.953 590.118 276.52 557.178C296.256 543.774 317.677 527.405 340.108 508.746C332.968 517.907 326.367 526.799 320.574 535.219C281.505 591.802 292.821 603.119 296.526 606.823C299.422 609.72 303.33 611 308.18 611C345.767 611 436.501 530.773 484.259 483.014C522.722 444.484 555.055 403.393 577.553 364.594C598.771 388.305 569.604 455.06 512.954 511.71C510.664 514 510.664 517.773 512.954 520.063C515.244 522.353 519.017 522.353 521.307 520.063C585.367 456.002 613.389 383.657 585.03 355.298C584.491 354.826 584.019 354.355 583.481 353.883ZM549.733 137.116C565.428 152.811 566.641 181.238 555.93 216.535C538.012 217.343 516.457 223.405 492.073 234.655C467.217 246.173 440.744 262.474 414.204 282.414C441.822 246.982 464.051 211.28 478.937 177.869C487.493 158.739 493.285 141.023 496.384 125.058C519.488 121.825 538.08 125.463 549.733 137.116ZM394.468 54.9356C430.64 44.1578 458.797 46.1786 473.885 61.2675C485.135 72.517 489.109 90.9735 485.943 114.617C441.89 123.037 386.048 151.8 328.724 196.663C348.595 170.19 364.829 143.852 376.281 118.996C387.665 94.5435 393.727 72.8536 394.468 54.9356ZM257.525 97.3728C267.494 72.8536 269.447 52.1738 263.385 37.4891C269.178 34.3905 274.903 31.4939 280.562 28.8669C323.74 8.86068 357.42 6.2336 372.845 21.7266C378.638 27.5197 381.871 35.8724 382.613 46.3134C374.529 49.0751 366.109 52.3759 357.353 56.2828C319.833 72.9883 279.484 98.8548 239.876 131.323C247.017 119.871 253.011 108.42 257.525 97.3728ZM69.0505 280.73C29.2409 308.213 14.7584 308.415 12.5356 306.192C4.31762 297.973 39.547 231.96 136.343 135.163C174.335 97.1708 214.818 65.3764 252.877 43.4168C257.053 55.0703 254.897 72.4496 246.545 92.9942C234.824 121.825 212.461 153.619 183.563 182.45C143.349 222.664 102.664 257.557 69.0505 280.73ZM108.996 386.554C60.9676 419.156 37.3241 424.141 31.6659 418.483C26.0076 412.824 30.9923 389.18 63.5945 341.085C93.637 296.829 139.105 243.479 191.714 190.87C191.781 190.803 191.848 190.735 191.916 190.668C191.983 190.6 191.983 190.6 192.05 190.533C247.555 135.028 307.978 91.1755 362.135 66.993C369.073 63.8944 375.809 61.2001 382.343 58.8425C380.861 74.3356 375.27 92.9942 365.571 113.944C344.419 159.547 306.698 210.741 259.343 258.164C206.735 310.907 153.319 356.443 108.996 386.554ZM184.506 478.434C132.908 512.653 106.975 517.099 100.373 510.565C93.8396 504.031 98.285 478.03 132.504 426.431C163.894 379.076 211.922 322.291 267.696 266.449C342.398 191.948 424.915 140.686 483.72 127.349C480.621 141.225 475.435 156.583 468.093 173.019C443.91 227.245 399.991 287.668 344.487 343.24C288.645 399.015 231.86 447.044 184.506 478.434ZM269.851 547.411C221.824 580.014 198.113 584.999 192.454 579.34C186.796 573.682 191.781 550.038 224.383 502.01C254.426 457.754 299.894 404.471 352.503 351.862C352.57 351.795 352.637 351.728 352.705 351.66C352.772 351.593 352.839 351.526 352.839 351.526C400.126 304.238 451.32 266.584 496.855 245.5C517.67 235.867 536.261 230.276 551.687 228.794C531.411 284.569 484.529 354.759 420.2 419.089C420.132 419.156 420.132 419.156 420.065 419.223C419.998 419.291 419.93 419.358 419.863 419.425C367.457 471.832 314.107 517.368 269.851 547.411ZM475.839 474.662C379.043 571.459 313.03 606.689 304.812 598.471C302.588 596.248 302.79 581.698 330.274 541.955C353.445 508.342 388.405 467.656 428.62 427.441C457.449 398.611 489.244 376.247 518.074 364.459C538.619 356.106 555.997 353.95 567.651 358.127C545.624 396.186 513.83 436.67 475.839 474.662ZM573.444 347.686C558.76 341.556 538.08 343.51 513.56 353.546C502.581 357.992 491.197 363.92 479.746 371.128C521.172 320.675 550.474 270.827 564.822 228.457C575.195 229.198 583.481 232.499 589.273 238.225C604.699 253.65 602.139 287.331 582.133 330.509C579.439 336.1 576.61 341.893 573.444 347.686Z" fill="white" fill-opacity="0.07"/>
</svg>
